<svg width="306" height="33" viewBox="0 0 306 33" fill="none" xmlns="http://www.w3.org/2000/svg">
<path d="M16.408 1.664V5.28H10.456V24H5.976V5.28H0.024V1.664H16.408ZM29.6608 6.016C31.0048 6.016 32.1994 6.31467 33.2448 6.912C34.2901 7.488 35.1008 8.352 35.6768 9.504C36.2741 10.6347 36.5728 12 36.5728 13.6V24H32.0928V14.208C32.0928 12.8 31.7408 11.7227 31.0368 10.976C30.3328 10.208 29.3728 9.824 28.1568 9.824C26.9194 9.824 25.9381 10.208 25.2128 10.976C24.5088 11.7227 24.1568 12.8 24.1568 14.208V24H19.6768V0.32H24.1568V8.48C24.7328 7.712 25.5008 7.11467 26.4608 6.688C27.4208 6.24 28.4874 6.016 29.6608 6.016ZM57.313 14.752C57.313 15.392 57.2703 15.968 57.185 16.48H44.225C44.3317 17.76 44.7797 18.7627 45.569 19.488C46.3583 20.2133 47.329 20.576 48.481 20.576C50.145 20.576 51.329 19.8613 52.033 18.432H56.865C56.353 20.1387 55.3717 21.5467 53.921 22.656C52.4703 23.744 50.689 24.288 48.577 24.288C46.8703 24.288 45.3343 23.9147 43.969 23.168C42.625 22.4 41.569 21.3227 40.801 19.936C40.0543 18.5493 39.681 16.9493 39.681 15.136C39.681 13.3013 40.0543 11.6907 40.801 10.304C41.5477 8.91733 42.593 7.85067 43.937 7.104C45.281 6.35733 46.8277 5.984 48.577 5.984C50.2623 5.984 51.7663 6.34667 53.089 7.072C54.433 7.79733 55.4677 8.832 56.193 10.176C56.9397 11.4987 57.313 13.024 57.313 14.752ZM52.673 13.472C52.6517 12.32 52.2357 11.4027 51.425 10.72C50.6143 10.016 49.6223 9.664 48.449 9.664C47.3397 9.664 46.401 10.0053 45.633 10.688C44.8863 11.3493 44.4277 12.2773 44.257 13.472H52.673ZM81.904 19.744H73.008L71.536 24H66.832L74.864 1.632H80.08L88.112 24H83.376L81.904 19.744ZM80.688 16.16L77.456 6.816L74.224 16.16H80.688ZM95.5943 0.32V24H91.1143V0.32H95.5943ZM104.501 0.32V24H100.021V0.32H104.501ZM135.656 24H131.176L121.032 8.672V24H116.552V1.632H121.032L131.176 16.992V1.632H135.656V24ZM156.563 14.752C156.563 15.392 156.52 15.968 156.435 16.48H143.475C143.582 17.76 144.03 18.7627 144.819 19.488C145.608 20.2133 146.579 20.576 147.731 20.576C149.395 20.576 150.579 19.8613 151.283 18.432H156.115C155.603 20.1387 154.622 21.5467 153.171 22.656C151.72 23.744 149.939 24.288 147.827 24.288C146.12 24.288 144.584 23.9147 143.219 23.168C141.875 22.4 140.819 21.3227 140.051 19.936C139.304 18.5493 138.931 16.9493 138.931 15.136C138.931 13.3013 139.304 11.6907 140.051 10.304C140.798 8.91733 141.843 7.85067 143.187 7.104C144.531 6.35733 146.078 5.984 147.827 5.984C149.512 5.984 151.016 6.34667 152.339 7.072C153.683 7.79733 154.718 8.832 155.443 10.176C156.19 11.4987 156.563 13.024 156.563 14.752ZM151.923 13.472C151.902 12.32 151.486 11.4027 150.675 10.72C149.864 10.016 148.872 9.664 147.699 9.664C146.59 9.664 145.651 10.0053 144.883 10.688C144.136 11.3493 143.678 12.2773 143.507 13.472H151.923ZM184.409 6.272L179.225 24H174.393L171.161 11.616L167.929 24H163.065L157.849 6.272H162.393L165.529 19.776L168.921 6.272H173.657L176.985 19.744L180.121 6.272H184.409ZM210.01 8.384C209.498 7.44533 208.794 6.73067 207.898 6.24C207.002 5.74933 205.957 5.504 204.762 5.504C203.439 5.504 202.266 5.80267 201.242 6.4C200.218 6.99733 199.418 7.85067 198.842 8.96C198.266 10.0693 197.978 11.3493 197.978 12.8C197.978 14.2933 198.266 15.5947 198.842 16.704C199.439 17.8133 200.261 18.6667 201.306 19.264C202.351 19.8613 203.567 20.16 204.954 20.16C206.661 20.16 208.058 19.712 209.146 18.816C210.234 17.8987 210.949 16.6293 211.29 15.008H203.61V11.584H215.706V15.488C215.407 17.0453 214.767 18.4853 213.786 19.808C212.805 21.1307 211.535 22.1973 209.978 23.008C208.442 23.7973 206.714 24.192 204.794 24.192C202.639 24.192 200.687 23.712 198.938 22.752C197.21 21.7707 195.845 20.416 194.842 18.688C193.861 16.96 193.37 14.9973 193.37 12.8C193.37 10.6027 193.861 8.64 194.842 6.912C195.845 5.16267 197.21 3.808 198.938 2.848C200.687 1.86667 202.629 1.376 204.762 1.376C207.279 1.376 209.466 1.99467 211.322 3.232C213.178 4.448 214.458 6.16533 215.162 8.384H210.01ZM217.868 15.072C217.868 13.28 218.22 11.6907 218.924 10.304C219.65 8.91733 220.621 7.85067 221.837 7.104C223.074 6.35733 224.45 5.984 225.965 5.984C227.287 5.984 228.439 6.25067 229.421 6.784C230.423 7.31733 231.223 7.98933 231.821 8.8V6.272H236.333V24H231.821V21.408C231.245 22.24 230.445 22.9333 229.421 23.488C228.418 24.0213 227.255 24.288 225.933 24.288C224.439 24.288 223.074 23.904 221.837 23.136C220.621 22.368 219.65 21.2907 218.924 19.904C218.22 18.496 217.868 16.8853 217.868 15.072ZM231.821 15.136C231.821 14.048 231.607 13.12 231.181 12.352C230.754 11.5627 230.178 10.9653 229.453 10.56C228.727 10.1333 227.949 9.92 227.117 9.92C226.285 9.92 225.517 10.1227 224.812 10.528C224.109 10.9333 223.533 11.5307 223.085 12.32C222.658 13.088 222.445 14.0053 222.445 15.072C222.445 16.1387 222.658 17.0773 223.085 17.888C223.533 18.6773 224.109 19.2853 224.812 19.712C225.538 20.1387 226.306 20.352 227.117 20.352C227.949 20.352 228.727 20.1493 229.453 19.744C230.178 19.3173 230.754 18.72 231.181 17.952C231.607 17.1627 231.821 16.224 231.821 15.136ZM245.188 0.32V24H240.708V0.32H245.188ZM248.462 15.072C248.462 13.28 248.814 11.6907 249.518 10.304C250.244 8.91733 251.214 7.85067 252.43 7.104C253.668 6.35733 255.044 5.984 256.558 5.984C257.881 5.984 259.033 6.25067 260.014 6.784C261.017 7.31733 261.817 7.98933 262.414 8.8V6.272H266.926V24H262.414V21.408C261.838 22.24 261.038 22.9333 260.014 23.488C259.012 24.0213 257.849 24.288 256.526 24.288C255.033 24.288 253.668 23.904 252.43 23.136C251.214 22.368 250.244 21.2907 249.518 19.904C248.814 18.496 248.462 16.8853 248.462 15.072ZM262.414 15.136C262.414 14.048 262.201 13.12 261.774 12.352C261.348 11.5627 260.772 10.9653 260.046 10.56C259.321 10.1333 258.542 9.92 257.71 9.92C256.878 9.92 256.11 10.1227 255.406 10.528C254.702 10.9333 254.126 11.5307 253.678 12.32C253.252 13.088 253.038 14.0053 253.038 15.072C253.038 16.1387 253.252 17.0773 253.678 17.888C254.126 18.6773 254.702 19.2853 255.406 19.712C256.132 20.1387 256.9 20.352 257.71 20.352C258.542 20.352 259.321 20.1493 260.046 19.744C260.772 19.3173 261.348 18.72 261.774 17.952C262.201 17.1627 262.414 16.224 262.414 15.136ZM281.094 24L277.446 18.496L274.214 24H269.414L275.206 15.104L269.35 6.272H274.406L278.022 11.744L281.286 6.272H286.086L280.262 15.104L286.15 24H281.094ZM305.543 6.272L294.567 32.384H289.799L293.639 23.552L286.535 6.272H291.559L296.135 18.656L300.775 6.272H305.543Z" fill="black"/>
</svg>
