<svg width="306" height="68" viewBox="0 0 306 68" fill="none" xmlns="http://www.w3.org/2000/svg">
<path d="M8.00898 23.21C6.54898 23.21 5.22898 22.96 4.04898 22.46C2.88898 21.96 1.96898 21.24 1.28898 20.3C0.608984 19.36 0.258984 18.25 0.238984 16.97H4.73898C4.79898 17.83 5.09898 18.51 5.63898 19.01C6.19898 19.51 6.95898 19.76 7.91898 19.76C8.89898 19.76 9.66898 19.53 10.229 19.07C10.789 18.59 11.069 17.97 11.069 17.21C11.069 16.59 10.879 16.08 10.499 15.68C10.119 15.28 9.63898 14.97 9.05899 14.75C8.49898 14.51 7.71898 14.25 6.71898 13.97C5.35898 13.57 4.24898 13.18 3.38898 12.8C2.54898 12.4 1.81898 11.81 1.19898 11.03C0.598984 10.23 0.298984 9.17 0.298984 7.85C0.298984 6.61 0.608985 5.53 1.22898 4.61C1.84898 3.69 2.71898 2.99 3.83898 2.51C4.95898 2.01 6.23898 1.76 7.67899 1.76C9.83898 1.76 11.589 2.29 12.929 3.35C14.289 4.39 15.039 5.85 15.179 7.73H10.559C10.519 7.01 10.209 6.42 9.62899 5.96C9.06899 5.48 8.31898 5.24 7.37898 5.24C6.55898 5.24 5.89898 5.45 5.39898 5.87C4.91898 6.29 4.67898 6.9 4.67898 7.7C4.67898 8.26 4.85898 8.73 5.21898 9.11C5.59898 9.47 6.05898 9.77 6.59898 10.01C7.15898 10.23 7.93898 10.49 8.93898 10.79C10.299 11.19 11.409 11.59 12.269 11.99C13.129 12.39 13.869 12.99 14.489 13.79C15.109 14.59 15.419 15.64 15.419 16.94C15.419 18.06 15.129 19.1 14.549 20.06C13.969 21.02 13.119 21.79 11.999 22.37C10.879 22.93 9.54898 23.21 8.00898 23.21ZM17.9802 14.63C17.9802 12.95 18.3102 11.46 18.9702 10.16C19.6502 8.86 20.5602 7.86 21.7002 7.16C22.8602 6.46 24.1502 6.11 25.5702 6.11C26.8102 6.11 27.8902 6.36 28.8102 6.86C29.7502 7.36 30.5002 7.99 31.0602 8.75V6.38H35.2902V23H31.0602V20.57C30.5202 21.35 29.7702 22 28.8102 22.52C27.8702 23.02 26.7802 23.27 25.5402 23.27C24.1402 23.27 22.8602 22.91 21.7002 22.19C20.5602 21.47 19.6502 20.46 18.9702 19.16C18.3102 17.84 17.9802 16.33 17.9802 14.63ZM31.0602 14.69C31.0602 13.67 30.8602 12.8 30.4602 12.08C30.0602 11.34 29.5202 10.78 28.8402 10.4C28.1602 10 27.4302 9.8 26.6502 9.8C25.8702 9.8 25.1502 9.99 24.4902 10.37C23.8302 10.75 23.2902 11.31 22.8702 12.05C22.4702 12.77 22.2702 13.63 22.2702 14.63C22.2702 15.63 22.4702 16.51 22.8702 17.27C23.2902 18.01 23.8302 18.58 24.4902 18.98C25.1702 19.38 25.8902 19.58 26.6502 19.58C27.4302 19.58 28.1602 19.39 28.8402 19.01C29.5202 18.61 30.0602 18.05 30.4602 17.33C30.8602 16.59 31.0602 15.71 31.0602 14.69ZM60.0323 6.14C62.0723 6.14 63.7123 6.77 64.9523 8.03C66.2123 9.27 66.8423 11.01 66.8423 13.25V23H62.6423V13.82C62.6423 12.52 62.3123 11.53 61.6523 10.85C60.9923 10.15 60.0923 9.8 58.9523 9.8C57.8123 9.8 56.9023 10.15 56.2223 10.85C55.5623 11.53 55.2323 12.52 55.2323 13.82V23H51.0323V13.82C51.0323 12.52 50.7023 11.53 50.0423 10.85C49.3823 10.15 48.4823 9.8 47.3423 9.8C46.1823 9.8 45.2623 10.15 44.5823 10.85C43.9223 11.53 43.5923 12.52 43.5923 13.82V23H39.3923V6.38H43.5923V8.39C44.1323 7.69 44.8223 7.14 45.6623 6.74C46.5223 6.34 47.4623 6.14 48.4823 6.14C49.7823 6.14 50.9423 6.42 51.9623 6.98C52.9823 7.52 53.7723 8.3 54.3323 9.32C54.8723 8.36 55.6523 7.59 56.6723 7.01C57.7123 6.43 58.8323 6.14 60.0323 6.14ZM77.1878 23.27C75.8278 23.27 74.6078 23.03 73.5278 22.55C72.4478 22.05 71.5878 21.38 70.9478 20.54C70.3278 19.7 69.9878 18.77 69.9278 17.75H74.1578C74.2378 18.39 74.5478 18.92 75.0878 19.34C75.6478 19.76 76.3378 19.97 77.1578 19.97C77.9578 19.97 78.5778 19.81 79.0178 19.49C79.4778 19.17 79.7078 18.76 79.7078 18.26C79.7078 17.72 79.4278 17.32 78.8678 17.06C78.3278 16.78 77.4578 16.48 76.2578 16.16C75.0178 15.86 73.9978 15.55 73.1978 15.23C72.4178 14.91 71.7378 14.42 71.1578 13.76C70.5978 13.1 70.3178 12.21 70.3178 11.09C70.3178 10.17 70.5778 9.33 71.0978 8.57C71.6378 7.81 72.3978 7.21 73.3778 6.77C74.3778 6.33 75.5478 6.11 76.8878 6.11C78.8678 6.11 80.4478 6.61 81.6278 7.61C82.8078 8.59 83.4578 9.92 83.5778 11.6H79.5578C79.4978 10.94 79.2178 10.42 78.7178 10.04C78.2378 9.64 77.5878 9.44 76.7678 9.44C76.0078 9.44 75.4178 9.58 74.9978 9.86C74.5978 10.14 74.3978 10.53 74.3978 11.03C74.3978 11.59 74.6778 12.02 75.2378 12.32C75.7978 12.6 76.6678 12.89 77.8478 13.19C79.0478 13.49 80.0378 13.8 80.8178 14.12C81.5978 14.44 82.2678 14.94 82.8278 15.62C83.4078 16.28 83.7078 17.16 83.7278 18.26C83.7278 19.22 83.4578 20.08 82.9178 20.84C82.3978 21.6 81.6378 22.2 80.6378 22.64C79.6578 23.06 78.5078 23.27 77.1878 23.27ZM102.865 6.38V23H98.6355V20.9C98.0955 21.62 97.3855 22.19 96.5055 22.61C95.6455 23.01 94.7055 23.21 93.6855 23.21C92.3855 23.21 91.2355 22.94 90.2355 22.4C89.2355 21.84 88.4455 21.03 87.8655 19.97C87.3055 18.89 87.0255 17.61 87.0255 16.13V6.38H91.2255V15.53C91.2255 16.85 91.5555 17.87 92.2155 18.59C92.8755 19.29 93.7755 19.64 94.9155 19.64C96.0755 19.64 96.9855 19.29 97.6455 18.59C98.3055 17.87 98.6355 16.85 98.6355 15.53V6.38H102.865ZM116.219 6.14C118.199 6.14 119.799 6.77 121.019 8.03C122.239 9.27 122.849 11.01 122.849 13.25V23H118.649V13.82C118.649 12.5 118.319 11.49 117.659 10.79C116.999 10.07 116.099 9.71 114.959 9.71C113.799 9.71 112.879 10.07 112.199 10.79C111.539 11.49 111.209 12.5 111.209 13.82V23H107.009V6.38H111.209V8.45C111.769 7.73 112.479 7.17 113.339 6.77C114.219 6.35 115.179 6.14 116.219 6.14ZM133.353 6.11C134.593 6.11 135.683 6.36 136.623 6.86C137.563 7.34 138.303 7.97 138.843 8.75V6.38H143.073V23.12C143.073 24.66 142.763 26.03 142.143 27.23C141.523 28.45 140.593 29.41 139.353 30.11C138.113 30.83 136.613 31.19 134.853 31.19C132.493 31.19 130.553 30.64 129.033 29.54C127.533 28.44 126.683 26.94 126.483 25.04H130.653C130.873 25.8 131.343 26.4 132.063 26.84C132.803 27.3 133.693 27.53 134.733 27.53C135.953 27.53 136.943 27.16 137.703 26.42C138.463 25.7 138.843 24.6 138.843 23.12V20.54C138.303 21.32 137.553 21.97 136.593 22.49C135.653 23.01 134.573 23.27 133.353 23.27C131.953 23.27 130.673 22.91 129.513 22.19C128.353 21.47 127.433 20.46 126.753 19.16C126.093 17.84 125.763 16.33 125.763 14.63C125.763 12.95 126.093 11.46 126.753 10.16C127.433 8.86 128.343 7.86 129.483 7.16C130.643 6.46 131.933 6.11 133.353 6.11ZM138.843 14.69C138.843 13.67 138.643 12.8 138.243 12.08C137.843 11.34 137.303 10.78 136.623 10.4C135.943 10 135.213 9.8 134.433 9.8C133.653 9.8 132.933 9.99 132.273 10.37C131.613 10.75 131.073 11.31 130.653 12.05C130.253 12.77 130.053 13.63 130.053 14.63C130.053 15.63 130.253 16.51 130.653 17.27C131.073 18.01 131.613 18.58 132.273 18.98C132.953 19.38 133.673 19.58 134.433 19.58C135.213 19.58 135.943 19.39 136.623 19.01C137.303 18.61 137.843 18.05 138.243 17.33C138.643 16.59 138.843 15.71 138.843 14.69ZM170.014 6.38V23H165.784V20.9C165.244 21.62 164.534 22.19 163.654 22.61C162.794 23.01 161.854 23.21 160.834 23.21C159.534 23.21 158.384 22.94 157.384 22.4C156.384 21.84 155.594 21.03 155.014 19.97C154.454 18.89 154.174 17.61 154.174 16.13V6.38H158.374V15.53C158.374 16.85 158.704 17.87 159.364 18.59C160.024 19.29 160.924 19.64 162.064 19.64C163.224 19.64 164.134 19.29 164.794 18.59C165.454 17.87 165.784 16.85 165.784 15.53V6.38H170.014ZM183.368 6.14C185.348 6.14 186.948 6.77 188.168 8.03C189.388 9.27 189.998 11.01 189.998 13.25V23H185.798V13.82C185.798 12.5 185.468 11.49 184.808 10.79C184.148 10.07 183.248 9.71 182.108 9.71C180.948 9.71 180.028 10.07 179.348 10.79C178.688 11.49 178.358 12.5 178.358 13.82V23H174.158V6.38H178.358V8.45C178.918 7.73 179.628 7.17 180.488 6.77C181.368 6.35 182.328 6.14 183.368 6.14ZM198.192 8.78C198.732 8.02 199.472 7.39 200.412 6.89C201.372 6.37 202.462 6.11 203.682 6.11C205.102 6.11 206.382 6.46 207.522 7.16C208.682 7.86 209.592 8.86 210.252 10.16C210.932 11.44 211.272 12.93 211.272 14.63C211.272 16.33 210.932 17.84 210.252 19.16C209.592 20.46 208.682 21.47 207.522 22.19C206.382 22.91 205.102 23.27 203.682 23.27C202.462 23.27 201.382 23.02 200.442 22.52C199.522 22.02 198.772 21.39 198.192 20.63V30.92H193.992V6.38H198.192V8.78ZM206.982 14.63C206.982 13.63 206.772 12.77 206.352 12.05C205.952 11.31 205.412 10.75 204.732 10.37C204.072 9.99 203.352 9.8 202.572 9.8C201.812 9.8 201.092 10 200.412 10.4C199.752 10.78 199.212 11.34 198.792 12.08C198.392 12.82 198.192 13.69 198.192 14.69C198.192 15.69 198.392 16.56 198.792 17.3C199.212 18.04 199.752 18.61 200.412 19.01C201.092 19.39 201.812 19.58 202.572 19.58C203.352 19.58 204.072 19.38 204.732 18.98C205.412 18.58 205.952 18.01 206.352 17.27C206.772 16.53 206.982 15.65 206.982 14.63ZM213.244 14.63C213.244 12.95 213.574 11.46 214.234 10.16C214.914 8.86 215.824 7.86 216.964 7.16C218.124 6.46 219.414 6.11 220.834 6.11C222.074 6.11 223.154 6.36 224.074 6.86C225.014 7.36 225.764 7.99 226.324 8.75V6.38H230.554V23H226.324V20.57C225.784 21.35 225.034 22 224.074 22.52C223.134 23.02 222.044 23.27 220.804 23.27C219.404 23.27 218.124 22.91 216.964 22.19C215.824 21.47 214.914 20.46 214.234 19.16C213.574 17.84 213.244 16.33 213.244 14.63ZM226.324 14.69C226.324 13.67 226.124 12.8 225.724 12.08C225.324 11.34 224.784 10.78 224.104 10.4C223.424 10 222.694 9.8 221.914 9.8C221.134 9.8 220.414 9.99 219.754 10.37C219.094 10.75 218.554 11.31 218.134 12.05C217.734 12.77 217.534 13.63 217.534 14.63C217.534 15.63 217.734 16.51 218.134 17.27C218.554 18.01 219.094 18.58 219.754 18.98C220.434 19.38 221.154 19.58 221.914 19.58C222.694 19.58 223.424 19.39 224.104 19.01C224.784 18.61 225.324 18.05 225.724 17.33C226.124 16.59 226.324 15.71 226.324 14.69ZM233.576 14.69C233.576 12.97 233.926 11.47 234.626 10.19C235.326 8.89 236.296 7.89 237.536 7.19C238.776 6.47 240.196 6.11 241.796 6.11C243.856 6.11 245.556 6.63 246.896 7.67C248.256 8.69 249.166 10.13 249.626 11.99H245.096C244.856 11.27 244.446 10.71 243.866 10.31C243.306 9.89 242.606 9.68 241.766 9.68C240.566 9.68 239.616 10.12 238.916 11C238.216 11.86 237.866 13.09 237.866 14.69C237.866 16.27 238.216 17.5 238.916 18.38C239.616 19.24 240.566 19.67 241.766 19.67C243.466 19.67 244.576 18.91 245.096 17.39H249.626C249.166 19.19 248.256 20.62 246.896 21.68C245.536 22.74 243.836 23.27 241.796 23.27C240.196 23.27 238.776 22.92 237.536 22.22C236.296 21.5 235.326 20.5 234.626 19.22C233.926 17.92 233.576 16.41 233.576 14.69ZM262.543 23L256.903 15.92V23H252.703V0.8H256.903V13.43L262.483 6.38H267.943L260.623 14.72L268.003 23H262.543ZM285.672 14.33C285.672 14.93 285.632 15.47 285.552 15.95H273.402C273.502 17.15 273.922 18.09 274.662 18.77C275.402 19.45 276.312 19.79 277.392 19.79C278.952 19.79 280.062 19.12 280.722 17.78H285.252C284.772 19.38 283.852 20.7 282.492 21.74C281.132 22.76 279.462 23.27 277.482 23.27C275.882 23.27 274.442 22.92 273.162 22.22C271.902 21.5 270.912 20.49 270.192 19.19C269.492 17.89 269.142 16.39 269.142 14.69C269.142 12.97 269.492 11.46 270.192 10.16C270.892 8.86 271.872 7.86 273.132 7.16C274.392 6.46 275.842 6.11 277.482 6.11C279.062 6.11 280.472 6.45 281.712 7.13C282.972 7.81 283.942 8.78 284.622 10.04C285.322 11.28 285.672 12.71 285.672 14.33ZM281.322 13.13C281.302 12.05 280.912 11.19 280.152 10.55C279.392 9.89 278.462 9.56 277.362 9.56C276.322 9.56 275.442 9.88 274.722 10.52C274.022 11.14 273.592 12.01 273.432 13.13H281.322ZM287.658 14.63C287.658 12.95 287.988 11.46 288.648 10.16C289.328 8.86 290.248 7.86 291.408 7.16C292.568 6.46 293.858 6.11 295.278 6.11C296.358 6.11 297.388 6.35 298.368 6.83C299.348 7.29 300.128 7.91 300.708 8.69V0.8H304.968V23H300.708V20.54C300.188 21.36 299.458 22.02 298.518 22.52C297.578 23.02 296.488 23.27 295.248 23.27C293.848 23.27 292.568 22.91 291.408 22.19C290.248 21.47 289.328 20.46 288.648 19.16C287.988 17.84 287.658 16.33 287.658 14.63ZM300.738 14.69C300.738 13.67 300.538 12.8 300.138 12.08C299.738 11.34 299.198 10.78 298.518 10.4C297.838 10 297.108 9.8 296.328 9.8C295.548 9.8 294.828 9.99 294.168 10.37C293.508 10.75 292.968 11.31 292.548 12.05C292.148 12.77 291.948 13.63 291.948 14.63C291.948 15.63 292.148 16.51 292.548 17.27C292.968 18.01 293.508 18.58 294.168 18.98C294.848 19.38 295.568 19.58 296.328 19.58C297.108 19.58 297.838 19.39 298.518 19.01C299.198 18.61 299.738 18.05 300.138 17.33C300.538 16.59 300.738 15.71 300.738 14.69ZM50.7822 59.21C48.8222 59.21 47.0222 58.75 45.3822 57.83C43.7422 56.91 42.4422 55.64 41.4822 54.02C40.5222 52.38 40.0422 50.53 40.0422 48.47C40.0422 46.43 40.5222 44.6 41.4822 42.98C42.4422 41.34 43.7422 40.06 45.3822 39.14C47.0222 38.22 48.8222 37.76 50.7822 37.76C52.7622 37.76 54.5622 38.22 56.1822 39.14C57.8222 40.06 59.1122 41.34 60.0522 42.98C61.0122 44.6 61.4922 46.43 61.4922 48.47C61.4922 50.53 61.0122 52.38 60.0522 54.02C59.1122 55.64 57.8222 56.91 56.1822 57.83C54.5422 58.75 52.7422 59.21 50.7822 59.21ZM50.7822 55.46C52.0422 55.46 53.1522 55.18 54.1122 54.62C55.0722 54.04 55.8222 53.22 56.3622 52.16C56.9022 51.1 57.1722 49.87 57.1722 48.47C57.1722 47.07 56.9022 45.85 56.3622 44.81C55.8222 43.75 55.0722 42.94 54.1122 42.38C53.1522 41.82 52.0422 41.54 50.7822 41.54C49.5222 41.54 48.4022 41.82 47.4222 42.38C46.4622 42.94 45.7122 43.75 45.1722 44.81C44.6322 45.85 44.3622 47.07 44.3622 48.47C44.3622 49.87 44.6322 51.1 45.1722 52.16C45.7122 53.22 46.4622 54.04 47.4222 54.62C48.4022 55.18 49.5222 55.46 50.7822 55.46ZM72.2369 45.83H69.3269V59H65.0669V45.83H63.1769V42.38H65.0669V41.54C65.0669 39.5 65.6469 38 66.8069 37.04C67.9669 36.08 69.7169 35.63 72.0569 35.69V39.23C71.0369 39.21 70.3269 39.38 69.9269 39.74C69.5269 40.1 69.3269 40.75 69.3269 41.69V42.38H72.2369V45.83ZM82.5787 45.83H79.6687V59H75.4087V45.83H73.5187V42.38H75.4087V41.54C75.4087 39.5 75.9887 38 77.1487 37.04C78.3087 36.08 80.0587 35.63 82.3987 35.69V39.23C81.3787 39.21 80.6687 39.38 80.2687 39.74C79.8687 40.1 79.6687 40.75 79.6687 41.69V42.38H82.5787V45.83ZM87.4305 40.4C86.6905 40.4 86.0705 40.17 85.5705 39.71C85.0905 39.23 84.8505 38.64 84.8505 37.94C84.8505 37.24 85.0905 36.66 85.5705 36.2C86.0705 35.72 86.6905 35.48 87.4305 35.48C88.1705 35.48 88.7805 35.72 89.2605 36.2C89.7605 36.66 90.0105 37.24 90.0105 37.94C90.0105 38.64 89.7605 39.23 89.2605 39.71C88.7805 40.17 88.1705 40.4 87.4305 40.4ZM89.5005 42.38V59H85.3005V42.38H89.5005ZM92.5701 50.69C92.5701 48.97 92.9201 47.47 93.6201 46.19C94.3201 44.89 95.2901 43.89 96.5301 43.19C97.7701 42.47 99.1901 42.11 100.79 42.11C102.85 42.11 104.55 42.63 105.89 43.67C107.25 44.69 108.16 46.13 108.62 47.99H104.09C103.85 47.27 103.44 46.71 102.86 46.31C102.3 45.89 101.6 45.68 100.76 45.68C99.5601 45.68 98.6101 46.12 97.9101 47C97.2101 47.86 96.8601 49.09 96.8601 50.69C96.8601 52.27 97.2101 53.5 97.9101 54.38C98.6101 55.24 99.5601 55.67 100.76 55.67C102.46 55.67 103.57 54.91 104.09 53.39H108.62C108.16 55.19 107.25 56.62 105.89 57.68C104.53 58.74 102.83 59.27 100.79 59.27C99.1901 59.27 97.7701 58.92 96.5301 58.22C95.2901 57.5 94.3201 56.5 93.6201 55.22C92.9201 53.92 92.5701 52.41 92.5701 50.69ZM113.827 40.4C113.087 40.4 112.467 40.17 111.967 39.71C111.487 39.23 111.247 38.64 111.247 37.94C111.247 37.24 111.487 36.66 111.967 36.2C112.467 35.72 113.087 35.48 113.827 35.48C114.567 35.48 115.177 35.72 115.657 36.2C116.157 36.66 116.407 37.24 116.407 37.94C116.407 38.64 116.157 39.23 115.657 39.71C115.177 40.17 114.567 40.4 113.827 40.4ZM115.897 42.38V59H111.697V42.38H115.897ZM118.967 50.63C118.967 48.95 119.297 47.46 119.957 46.16C120.637 44.86 121.547 43.86 122.687 43.16C123.847 42.46 125.137 42.11 126.557 42.11C127.797 42.11 128.877 42.36 129.797 42.86C130.737 43.36 131.487 43.99 132.047 44.75V42.38H136.277V59H132.047V56.57C131.507 57.35 130.757 58 129.797 58.52C128.857 59.02 127.767 59.27 126.527 59.27C125.127 59.27 123.847 58.91 122.687 58.19C121.547 57.47 120.637 56.46 119.957 55.16C119.297 53.84 118.967 52.33 118.967 50.63ZM132.047 50.69C132.047 49.67 131.847 48.8 131.447 48.08C131.047 47.34 130.507 46.78 129.827 46.4C129.147 46 128.417 45.8 127.637 45.8C126.857 45.8 126.137 45.99 125.477 46.37C124.817 46.75 124.277 47.31 123.857 48.05C123.457 48.77 123.257 49.63 123.257 50.63C123.257 51.63 123.457 52.51 123.857 53.27C124.277 54.01 124.817 54.58 125.477 54.98C126.157 55.38 126.877 55.58 127.637 55.58C128.417 55.58 129.147 55.39 129.827 55.01C130.507 54.61 131.047 54.05 131.447 53.33C131.847 52.59 132.047 51.71 132.047 50.69ZM144.579 36.8V59H140.379V36.8H144.579ZM165.237 42.14C166.497 42.14 167.617 42.42 168.597 42.98C169.577 43.52 170.337 44.33 170.877 45.41C171.437 46.47 171.717 47.75 171.717 49.25V59H167.517V49.82C167.517 48.5 167.187 47.49 166.527 46.79C165.867 46.07 164.967 45.71 163.827 45.71C162.667 45.71 161.747 46.07 161.067 46.79C160.407 47.49 160.077 48.5 160.077 49.82V59H155.877V36.8H160.077V44.45C160.617 43.73 161.337 43.17 162.237 42.77C163.137 42.35 164.137 42.14 165.237 42.14ZM177.841 40.4C177.101 40.4 176.481 40.17 175.981 39.71C175.501 39.23 175.261 38.64 175.261 37.94C175.261 37.24 175.501 36.66 175.981 36.2C176.481 35.72 177.101 35.48 177.841 35.48C178.581 35.48 179.191 35.72 179.671 36.2C180.171 36.66 180.421 37.24 180.421 37.94C180.421 38.64 180.171 39.23 179.671 39.71C179.191 40.17 178.581 40.4 177.841 40.4ZM179.911 42.38V59H175.711V42.38H179.911ZM190.57 42.11C191.81 42.11 192.9 42.36 193.84 42.86C194.78 43.34 195.52 43.97 196.06 44.75V42.38H200.29V59.12C200.29 60.66 199.98 62.03 199.36 63.23C198.74 64.45 197.81 65.41 196.57 66.11C195.33 66.83 193.83 67.19 192.07 67.19C189.71 67.19 187.77 66.64 186.25 65.54C184.75 64.44 183.9 62.94 183.7 61.04H187.87C188.09 61.8 188.56 62.4 189.28 62.84C190.02 63.3 190.91 63.53 191.95 63.53C193.17 63.53 194.16 63.16 194.92 62.42C195.68 61.7 196.06 60.6 196.06 59.12V56.54C195.52 57.32 194.77 57.97 193.81 58.49C192.87 59.01 191.79 59.27 190.57 59.27C189.17 59.27 187.89 58.91 186.73 58.19C185.57 57.47 184.65 56.46 183.97 55.16C183.31 53.84 182.98 52.33 182.98 50.63C182.98 48.95 183.31 47.46 183.97 46.16C184.65 44.86 185.56 43.86 186.7 43.16C187.86 42.46 189.15 42.11 190.57 42.11ZM196.06 50.69C196.06 49.67 195.86 48.8 195.46 48.08C195.06 47.34 194.52 46.78 193.84 46.4C193.16 46 192.43 45.8 191.65 45.8C190.87 45.8 190.15 45.99 189.49 46.37C188.83 46.75 188.29 47.31 187.87 48.05C187.47 48.77 187.27 49.63 187.27 50.63C187.27 51.63 187.47 52.51 187.87 53.27C188.29 54.01 188.83 54.58 189.49 54.98C190.17 55.38 190.89 55.58 191.65 55.58C192.43 55.58 193.16 55.39 193.84 55.01C194.52 54.61 195.06 54.05 195.46 53.33C195.86 52.59 196.06 51.71 196.06 50.69ZM213.752 42.14C215.012 42.14 216.132 42.42 217.112 42.98C218.092 43.52 218.852 44.33 219.392 45.41C219.952 46.47 220.232 47.75 220.232 49.25V59H216.032V49.82C216.032 48.5 215.702 47.49 215.042 46.79C214.382 46.07 213.482 45.71 212.342 45.71C211.182 45.71 210.262 46.07 209.582 46.79C208.922 47.49 208.592 48.5 208.592 49.82V59H204.392V36.8H208.592V44.45C209.132 43.73 209.852 43.17 210.752 42.77C211.652 42.35 212.652 42.14 213.752 42.14ZM228.426 36.8V59H224.226V36.8H228.426ZM234.706 40.4C233.966 40.4 233.346 40.17 232.846 39.71C232.366 39.23 232.126 38.64 232.126 37.94C232.126 37.24 232.366 36.66 232.846 36.2C233.346 35.72 233.966 35.48 234.706 35.48C235.446 35.48 236.056 35.72 236.536 36.2C237.036 36.66 237.286 37.24 237.286 37.94C237.286 38.64 237.036 39.23 236.536 39.71C236.056 40.17 235.446 40.4 234.706 40.4ZM236.776 42.38V59H232.576V42.38H236.776ZM247.435 42.11C248.675 42.11 249.765 42.36 250.705 42.86C251.645 43.34 252.385 43.97 252.925 44.75V42.38H257.155V59.12C257.155 60.66 256.845 62.03 256.225 63.23C255.605 64.45 254.675 65.41 253.435 66.11C252.195 66.83 250.695 67.19 248.935 67.19C246.575 67.19 244.635 66.64 243.115 65.54C241.615 64.44 240.765 62.94 240.565 61.04H244.735C244.955 61.8 245.425 62.4 246.145 62.84C246.885 63.3 247.775 63.53 248.815 63.53C250.035 63.53 251.025 63.16 251.785 62.42C252.545 61.7 252.925 60.6 252.925 59.12V56.54C252.385 57.32 251.635 57.97 250.675 58.49C249.735 59.01 248.655 59.27 247.435 59.27C246.035 59.27 244.755 58.91 243.595 58.19C242.435 57.47 241.515 56.46 240.835 55.16C240.175 53.84 239.845 52.33 239.845 50.63C239.845 48.95 240.175 47.46 240.835 46.16C241.515 44.86 242.425 43.86 243.565 43.16C244.725 42.46 246.015 42.11 247.435 42.11ZM252.925 50.69C252.925 49.67 252.725 48.8 252.325 48.08C251.925 47.34 251.385 46.78 250.705 46.4C250.025 46 249.295 45.8 248.515 45.8C247.735 45.8 247.015 45.99 246.355 46.37C245.695 46.75 245.155 47.31 244.735 48.05C244.335 48.77 244.135 49.63 244.135 50.63C244.135 51.63 244.335 52.51 244.735 53.27C245.155 54.01 245.695 54.58 246.355 54.98C247.035 55.38 247.755 55.58 248.515 55.58C249.295 55.58 250.025 55.39 250.705 55.01C251.385 54.61 251.925 54.05 252.325 53.33C252.725 52.59 252.925 51.71 252.925 50.69ZM270.618 42.14C271.878 42.14 272.998 42.42 273.978 42.98C274.958 43.52 275.718 44.33 276.258 45.41C276.818 46.47 277.098 47.75 277.098 49.25V59H272.898V49.82C272.898 48.5 272.568 47.49 271.908 46.79C271.248 46.07 270.348 45.71 269.208 45.71C268.048 45.71 267.128 46.07 266.448 46.79C265.788 47.49 265.458 48.5 265.458 49.82V59H261.258V36.8H265.458V44.45C265.998 43.73 266.718 43.17 267.618 42.77C268.518 42.35 269.518 42.14 270.618 42.14ZM285.981 45.83V53.87C285.981 54.43 286.111 54.84 286.371 55.1C286.651 55.34 287.111 55.46 287.751 55.46H289.701V59H287.061C283.521 59 281.751 57.28 281.751 53.84V45.83H279.771V42.38H281.751V38.27H285.981V42.38H289.701V45.83H285.981ZM299.082 59.27C297.722 59.27 296.502 59.03 295.422 58.55C294.342 58.05 293.482 57.38 292.842 56.54C292.222 55.7 291.882 54.77 291.822 53.75H296.052C296.132 54.39 296.442 54.92 296.982 55.34C297.542 55.76 298.232 55.97 299.052 55.97C299.852 55.97 300.472 55.81 300.912 55.49C301.372 55.17 301.602 54.76 301.602 54.26C301.602 53.72 301.322 53.32 300.762 53.06C300.222 52.78 299.352 52.48 298.152 52.16C296.912 51.86 295.892 51.55 295.092 51.23C294.312 50.91 293.632 50.42 293.052 49.76C292.492 49.1 292.212 48.21 292.212 47.09C292.212 46.17 292.472 45.33 292.992 44.57C293.532 43.81 294.292 43.21 295.272 42.77C296.272 42.33 297.442 42.11 298.782 42.11C300.762 42.11 302.342 42.61 303.522 43.61C304.702 44.59 305.352 45.92 305.472 47.6H301.452C301.392 46.94 301.112 46.42 300.612 46.04C300.132 45.64 299.482 45.44 298.662 45.44C297.902 45.44 297.312 45.58 296.892 45.86C296.492 46.14 296.292 46.53 296.292 47.03C296.292 47.59 296.572 48.02 297.132 48.32C297.692 48.6 298.562 48.89 299.742 49.19C300.942 49.49 301.932 49.8 302.712 50.12C303.492 50.44 304.162 50.94 304.722 51.62C305.302 52.28 305.602 53.16 305.622 54.26C305.622 55.22 305.352 56.08 304.812 56.84C304.292 57.6 303.532 58.2 302.532 58.64C301.552 59.06 300.402 59.27 299.082 59.27Z" fill="white"/>
</svg>
