<svg width="488" height="74" viewBox="0 0 488 74" fill="none" xmlns="http://www.w3.org/2000/svg">
<path d="M36.9613 20.84C35.8413 18.7867 34.3013 17.2233 32.3413 16.15C30.3813 15.0767 28.0947 14.54 25.4813 14.54C22.588 14.54 20.0213 15.1933 17.7813 16.5C15.5413 17.8067 13.7913 19.6733 12.5313 22.1C11.2713 24.5267 10.6413 27.3267 10.6413 30.5C10.6413 33.7667 11.2713 36.6133 12.5313 39.04C13.838 41.4667 15.6347 43.3333 17.9213 44.64C20.208 45.9467 22.868 46.6 25.9013 46.6C29.6347 46.6 32.6913 45.62 35.0713 43.66C37.4513 41.6533 39.0147 38.8767 39.7613 35.33H22.9613V27.84H49.4213V36.38C48.768 39.7867 47.368 42.9367 45.2213 45.83C43.0747 48.7233 40.298 51.0567 36.8913 52.83C33.5313 54.5567 29.7513 55.42 25.5513 55.42C20.838 55.42 16.568 54.37 12.7413 52.27C8.96133 50.1233 5.97466 47.16 3.78133 43.38C1.63466 39.6 0.561328 35.3067 0.561328 30.5C0.561328 25.6933 1.63466 21.4 3.78133 17.62C5.97466 13.7933 8.96133 10.83 12.7413 8.73C16.568 6.58333 20.8147 5.51 25.4813 5.51C30.988 5.51 35.7713 6.86333 39.8313 9.57C43.8913 12.23 46.6913 15.9867 48.2313 20.84H36.9613ZM54.1518 35.47C54.1518 31.55 54.9218 28.0733 56.4618 25.04C58.0485 22.0067 60.1718 19.6733 62.8318 18.04C65.5385 16.4067 68.5485 15.59 71.8618 15.59C74.7551 15.59 77.2751 16.1733 79.4218 17.34C81.6151 18.5067 83.3651 19.9767 84.6718 21.75V16.22H94.5418V55H84.6718V49.33C83.4118 51.15 81.6618 52.6667 79.4218 53.88C77.2285 55.0467 74.6851 55.63 71.7918 55.63C68.5251 55.63 65.5385 54.79 62.8318 53.11C60.1718 51.43 58.0485 49.0733 56.4618 46.04C54.9218 42.96 54.1518 39.4367 54.1518 35.47ZM84.6718 35.61C84.6718 33.23 84.2051 31.2 83.2718 29.52C82.3385 27.7933 81.0785 26.4867 79.4918 25.6C77.9051 24.6667 76.2018 24.2 74.3818 24.2C72.5618 24.2 70.8818 24.6433 69.3418 25.53C67.8018 26.4167 66.5418 27.7233 65.5618 29.45C64.6285 31.13 64.1618 33.1367 64.1618 35.47C64.1618 37.8033 64.6285 39.8567 65.5618 41.63C66.5418 43.3567 67.8018 44.6867 69.3418 45.62C70.9285 46.5533 72.6085 47.02 74.3818 47.02C76.2018 47.02 77.9051 46.5767 79.4918 45.69C81.0785 44.7567 82.3385 43.45 83.2718 41.77C84.2051 40.0433 84.6718 37.99 84.6718 35.61ZM113.913 3.2V55H104.113V3.2H113.913ZM121.076 35.47C121.076 31.55 121.846 28.0733 123.386 25.04C124.972 22.0067 127.096 19.6733 129.756 18.04C132.462 16.4067 135.472 15.59 138.786 15.59C141.679 15.59 144.199 16.1733 146.346 17.34C148.539 18.5067 150.289 19.9767 151.596 21.75V16.22H161.466V55H151.596V49.33C150.336 51.15 148.586 52.6667 146.346 53.88C144.152 55.0467 141.609 55.63 138.716 55.63C135.449 55.63 132.462 54.79 129.756 53.11C127.096 51.43 124.972 49.0733 123.386 46.04C121.846 42.96 121.076 39.4367 121.076 35.47ZM151.596 35.61C151.596 33.23 151.129 31.2 150.196 29.52C149.262 27.7933 148.002 26.4867 146.416 25.6C144.829 24.6667 143.126 24.2 141.306 24.2C139.486 24.2 137.806 24.6433 136.266 25.53C134.726 26.4167 133.466 27.7233 132.486 29.45C131.552 31.13 131.086 33.1367 131.086 35.47C131.086 37.8033 131.552 39.8567 132.486 41.63C133.466 43.3567 134.726 44.6867 136.266 45.62C137.852 46.5533 139.532 47.02 141.306 47.02C143.126 47.02 144.829 46.5767 146.416 45.69C148.002 44.7567 149.262 43.45 150.196 41.77C151.129 40.0433 151.596 37.99 151.596 35.61ZM192.457 55L184.477 42.96L177.407 55H166.907L179.577 35.54L166.767 16.22H177.827L185.737 28.19L192.877 16.22H203.377L190.637 35.54L203.517 55H192.457ZM245.94 16.22L221.93 73.34H211.5L219.9 54.02L204.36 16.22H215.35L225.36 43.31L235.51 16.22H245.94ZM277.912 46.74H299.892V55H266.572V47.44L288.412 14.4H266.572V6.14H299.892V13.7L277.912 46.74ZM355.084 6.14V14.05H334.714V26.58H350.324V34.35H334.714V55H324.914V6.14H355.084ZM371.833 3.2V55H362.033V3.2H371.833ZM386.486 11.6C384.759 11.6 383.312 11.0633 382.146 9.99C381.026 8.87 380.466 7.49333 380.466 5.86C380.466 4.22666 381.026 2.87333 382.146 1.8C383.312 0.679997 384.759 0.119997 386.486 0.119997C388.212 0.119997 389.636 0.679997 390.756 1.8C391.922 2.87333 392.506 4.22666 392.506 5.86C392.506 7.49333 391.922 8.87 390.756 9.99C389.636 11.0633 388.212 11.6 386.486 11.6ZM391.316 16.22V55H381.516V16.22H391.316ZM410.798 21.82C412.058 20.0467 413.785 18.5767 415.978 17.41C418.218 16.1967 420.761 15.59 423.608 15.59C426.921 15.59 429.908 16.4067 432.568 18.04C435.275 19.6733 437.398 22.0067 438.938 25.04C440.525 28.0267 441.318 31.5033 441.318 35.47C441.318 39.4367 440.525 42.96 438.938 46.04C437.398 49.0733 435.275 51.43 432.568 53.11C429.908 54.79 426.921 55.63 423.608 55.63C420.761 55.63 418.241 55.0467 416.048 53.88C413.901 52.7133 412.151 51.2433 410.798 49.47V73.48H400.998V16.22H410.798V21.82ZM431.308 35.47C431.308 33.1367 430.818 31.13 429.838 29.45C428.905 27.7233 427.645 26.4167 426.058 25.53C424.518 24.6433 422.838 24.2 421.018 24.2C419.245 24.2 417.565 24.6667 415.978 25.6C414.438 26.4867 413.178 27.7933 412.198 29.52C411.265 31.2467 410.798 33.2767 410.798 35.61C410.798 37.9433 411.265 39.9733 412.198 41.7C413.178 43.4267 414.438 44.7567 415.978 45.69C417.565 46.5767 419.245 47.02 421.018 47.02C422.838 47.02 424.518 46.5533 426.058 45.62C427.645 44.6867 428.905 43.3567 429.838 41.63C430.818 39.9033 431.308 37.85 431.308 35.47ZM446.899 45.06V37.36L469.789 4.6H481.199V36.52H487.359V45.06H481.199V55H471.399V45.06H446.899ZM472.029 15.1L457.679 36.52H472.029V15.1Z" fill="black"/>
</svg>
