<svg width="51" height="15" viewBox="0 0 51 15" fill="none" xmlns="http://www.w3.org/2000/svg">
<path d="M4.80443 14.126C3.97643 14.126 3.23243 13.982 2.57243 13.694C1.92443 13.394 1.41443 12.986 1.04243 12.47C0.67043 11.942 0.47843 11.336 0.46643 10.652H2.21243C2.27243 11.24 2.51243 11.738 2.93243 12.146C3.36443 12.542 3.98843 12.74 4.80443 12.74C5.58443 12.74 6.19643 12.548 6.64043 12.164C7.09643 11.768 7.32443 11.264 7.32443 10.652C7.32443 10.172 7.19243 9.782 6.92843 9.482C6.66443 9.182 6.33443 8.954 5.93843 8.798C5.54243 8.642 5.00843 8.474 4.33643 8.294C3.50843 8.078 2.84243 7.862 2.33843 7.646C1.84643 7.43 1.42043 7.094 1.06043 6.638C0.71243 6.17 0.53843 5.546 0.53843 4.766C0.53843 4.082 0.71243 3.476 1.06043 2.948C1.40843 2.42 1.89443 2.012 2.51843 1.724C3.15443 1.436 3.88043 1.292 4.69643 1.292C5.87243 1.292 6.83243 1.586 7.57643 2.174C8.33243 2.762 8.75843 3.542 8.85443 4.514H7.05443C6.99443 4.034 6.74243 3.614 6.29843 3.254C5.85443 2.882 5.26643 2.696 4.53443 2.696C3.85043 2.696 3.29243 2.876 2.86043 3.236C2.42843 3.584 2.21243 4.076 2.21243 4.712C2.21243 5.168 2.33843 5.54 2.59043 5.828C2.85443 6.116 3.17243 6.338 3.54443 6.494C3.92843 6.638 4.46243 6.806 5.14643 6.998C5.97443 7.226 6.64043 7.454 7.14443 7.682C7.64843 7.898 8.08043 8.24 8.44043 8.708C8.80043 9.164 8.98043 9.788 8.98043 10.58C8.98043 11.192 8.81843 11.768 8.49443 12.308C8.17043 12.848 7.69043 13.286 7.05443 13.622C6.41843 13.958 5.66843 14.126 4.80443 14.126ZM16.2869 3.956C17.0309 3.956 17.7029 4.118 18.3029 4.442C18.9029 4.754 19.3709 5.228 19.7069 5.864C20.0549 6.5 20.2289 7.274 20.2289 8.186V14H18.6089V8.42C18.6089 7.436 18.3629 6.686 17.8709 6.17C17.3789 5.642 16.7069 5.378 15.8549 5.378C14.9909 5.378 14.3009 5.648 13.7849 6.188C13.2809 6.728 13.0289 7.514 13.0289 8.546V14H11.3909V0.68H13.0289V5.54C13.3529 5.036 13.7969 4.646 14.3609 4.37C14.9369 4.094 15.5789 3.956 16.2869 3.956ZM22.2926 9.032C22.2926 8.024 22.4966 7.142 22.9046 6.386C23.3126 5.618 23.8706 5.024 24.5786 4.604C25.2986 4.184 26.0966 3.974 26.9726 3.974C27.8366 3.974 28.5866 4.16 29.2226 4.532C29.8586 4.904 30.3326 5.372 30.6446 5.936V4.136H32.3006V14H30.6446V12.164C30.3206 12.74 29.8346 13.22 29.1866 13.604C28.5506 13.976 27.8066 14.162 26.9546 14.162C26.0786 14.162 25.2866 13.946 24.5786 13.514C23.8706 13.082 23.3126 12.476 22.9046 11.696C22.4966 10.916 22.2926 10.028 22.2926 9.032ZM30.6446 9.05C30.6446 8.306 30.4946 7.658 30.1946 7.106C29.8946 6.554 29.4866 6.134 28.9706 5.846C28.4666 5.546 27.9086 5.396 27.2966 5.396C26.6846 5.396 26.1266 5.54 25.6226 5.828C25.1186 6.116 24.7166 6.536 24.4166 7.088C24.1166 7.64 23.9666 8.288 23.9666 9.032C23.9666 9.788 24.1166 10.448 24.4166 11.012C24.7166 11.564 25.1186 11.99 25.6226 12.29C26.1266 12.578 26.6846 12.722 27.2966 12.722C27.9086 12.722 28.4666 12.578 28.9706 12.29C29.4866 11.99 29.8946 11.564 30.1946 11.012C30.4946 10.448 30.6446 9.794 30.6446 9.05ZM36.7066 5.738C36.9946 5.174 37.4026 4.736 37.9306 4.424C38.4706 4.112 39.1246 3.956 39.8926 3.956V5.648H39.4606C37.6246 5.648 36.7066 6.644 36.7066 8.636V14H35.0686V4.136H36.7066V5.738ZM50.7835 8.69C50.7835 9.002 50.7655 9.332 50.7295 9.68H42.8455C42.9055 10.652 43.2355 11.414 43.8355 11.966C44.4475 12.506 45.1855 12.776 46.0495 12.776C46.7575 12.776 47.3455 12.614 47.8135 12.29C48.2935 11.954 48.6295 11.51 48.8215 10.958H50.5855C50.3215 11.906 49.7935 12.68 49.0015 13.28C48.2095 13.868 47.2255 14.162 46.0495 14.162C45.1135 14.162 44.2735 13.952 43.5295 13.532C42.7975 13.112 42.2215 12.518 41.8015 11.75C41.3815 10.97 41.1715 10.07 41.1715 9.05C41.1715 8.03 41.3755 7.136 41.7835 6.368C42.1915 5.6 42.7615 5.012 43.4935 4.604C44.2375 4.184 45.0895 3.974 46.0495 3.974C46.9855 3.974 47.8135 4.178 48.5335 4.586C49.2535 4.994 49.8055 5.558 50.1895 6.278C50.5855 6.986 50.7835 7.79 50.7835 8.69ZM49.0915 8.348C49.0915 7.724 48.9535 7.19 48.6775 6.746C48.4015 6.29 48.0235 5.948 47.5435 5.72C47.0755 5.48 46.5535 5.36 45.9775 5.36C45.1495 5.36 44.4415 5.624 43.8535 6.152C43.2775 6.68 42.9475 7.412 42.8635 8.348H49.0915Z" fill="#999999"/>
</svg>
