<svg width="295" height="60" viewBox="0 0 295 60" fill="none" xmlns="http://www.w3.org/2000/svg">
<path d="M15.65 8.36C15.17 7.48 14.51 6.81 13.67 6.35C12.83 5.89 11.85 5.66 10.73 5.66C9.49 5.66 8.39 5.94 7.43 6.5C6.47 7.06 5.72 7.86 5.18 8.9C4.64 9.94 4.37 11.14 4.37 12.5C4.37 13.9 4.64 15.12 5.18 16.16C5.74 17.2 6.51 18 7.49 18.56C8.47 19.12 9.61 19.4 10.91 19.4C12.51 19.4 13.82 18.98 14.84 18.14C15.86 17.28 16.53 16.09 16.85 14.57H9.65V11.36H20.99V15.02C20.71 16.48 20.11 17.83 19.19 19.07C18.27 20.31 17.08 21.31 15.62 22.07C14.18 22.81 12.56 23.18 10.76 23.18C8.74 23.18 6.91 22.73 5.27 21.83C3.65 20.91 2.37 19.64 1.43 18.02C0.51 16.4 0.05 14.56 0.05 12.5C0.05 10.44 0.51 8.6 1.43 6.98C2.37 5.34 3.65 4.07 5.27 3.17C6.91 2.25 8.73 1.79 10.73 1.79C13.09 1.79 15.14 2.37 16.88 3.53C18.62 4.67 19.82 6.28 20.48 8.36H15.65ZM23.0173 14.63C23.0173 12.95 23.3473 11.46 24.0073 10.16C24.6873 8.86 25.5973 7.86 26.7373 7.16C27.8973 6.46 29.1873 6.11 30.6073 6.11C31.8473 6.11 32.9273 6.36 33.8473 6.86C34.7873 7.36 35.5373 7.99 36.0973 8.75V6.38H40.3273V23H36.0973V20.57C35.5573 21.35 34.8073 22 33.8473 22.52C32.9073 23.02 31.8173 23.27 30.5773 23.27C29.1773 23.27 27.8973 22.91 26.7373 22.19C25.5973 21.47 24.6873 20.46 24.0073 19.16C23.3473 17.84 23.0173 16.33 23.0173 14.63ZM36.0973 14.69C36.0973 13.67 35.8973 12.8 35.4973 12.08C35.0973 11.34 34.5573 10.78 33.8773 10.4C33.1973 10 32.4673 9.8 31.6873 9.8C30.9073 9.8 30.1873 9.99 29.5273 10.37C28.8673 10.75 28.3273 11.31 27.9073 12.05C27.5073 12.77 27.3073 13.63 27.3073 14.63C27.3073 15.63 27.5073 16.51 27.9073 17.27C28.3273 18.01 28.8673 18.58 29.5273 18.98C30.2073 19.38 30.9273 19.58 31.6873 19.58C32.4673 19.58 33.1973 19.39 33.8773 19.01C34.5573 18.61 35.0973 18.05 35.4973 17.33C35.8973 16.59 36.0973 15.71 36.0973 14.69ZM48.6294 0.8V23H44.4294V0.8H48.6294ZM51.699 14.63C51.699 12.95 52.029 11.46 52.689 10.16C53.369 8.86 54.279 7.86 55.419 7.16C56.579 6.46 57.869 6.11 59.289 6.11C60.529 6.11 61.609 6.36 62.529 6.86C63.469 7.36 64.219 7.99 64.779 8.75V6.38H69.009V23H64.779V20.57C64.239 21.35 63.489 22 62.529 22.52C61.589 23.02 60.499 23.27 59.259 23.27C57.859 23.27 56.579 22.91 55.419 22.19C54.279 21.47 53.369 20.46 52.689 19.16C52.029 17.84 51.699 16.33 51.699 14.63ZM64.779 14.69C64.779 13.67 64.579 12.8 64.179 12.08C63.779 11.34 63.239 10.78 62.559 10.4C61.879 10 61.149 9.8 60.369 9.8C59.589 9.8 58.869 9.99 58.209 10.37C57.549 10.75 57.009 11.31 56.589 12.05C56.189 12.77 55.989 13.63 55.989 14.63C55.989 15.63 56.189 16.51 56.589 17.27C57.009 18.01 57.549 18.58 58.209 18.98C58.889 19.38 59.609 19.58 60.369 19.58C61.149 19.58 61.879 19.39 62.559 19.01C63.239 18.61 63.779 18.05 64.179 17.33C64.579 16.59 64.779 15.71 64.779 14.69ZM82.291 23L78.871 17.84L75.841 23H71.341L76.771 14.66L71.281 6.38H76.021L79.411 11.51L82.471 6.38H86.971L81.511 14.66L87.031 23H82.291ZM105.212 6.38L94.9222 30.86H90.4522L94.0522 22.58L87.3922 6.38H92.1022L96.3922 17.99L100.742 6.38H105.212ZM118.915 19.46H128.335V23H114.055V19.76L123.415 5.6H114.055V2.06H128.335V5.3L118.915 19.46ZM151.988 2.06V5.45H143.258V10.82H149.948V14.15H143.258V23H139.058V2.06H151.988ZM162.346 23.27C160.746 23.27 159.306 22.92 158.026 22.22C156.746 21.5 155.736 20.49 154.996 19.19C154.276 17.89 153.916 16.39 153.916 14.69C153.916 12.99 154.286 11.49 155.026 10.19C155.786 8.89 156.816 7.89 158.116 7.19C159.416 6.47 160.866 6.11 162.466 6.11C164.066 6.11 165.516 6.47 166.816 7.19C168.116 7.89 169.136 8.89 169.876 10.19C170.636 11.49 171.016 12.99 171.016 14.69C171.016 16.39 170.626 17.89 169.846 19.19C169.086 20.49 168.046 21.5 166.726 22.22C165.426 22.92 163.966 23.27 162.346 23.27ZM162.346 19.61C163.106 19.61 163.816 19.43 164.476 19.07C165.156 18.69 165.696 18.13 166.096 17.39C166.496 16.65 166.696 15.75 166.696 14.69C166.696 13.11 166.276 11.9 165.436 11.06C164.616 10.2 163.606 9.77 162.406 9.77C161.206 9.77 160.196 10.2 159.376 11.06C158.576 11.9 158.176 13.11 158.176 14.69C158.176 16.27 158.566 17.49 159.346 18.35C160.146 19.19 161.146 19.61 162.346 19.61ZM178.297 0.8V23H174.097V0.8H178.297ZM181.367 14.63C181.367 12.95 181.697 11.46 182.357 10.16C183.037 8.86 183.957 7.86 185.117 7.16C186.277 6.46 187.567 6.11 188.987 6.11C190.067 6.11 191.097 6.35 192.077 6.83C193.057 7.29 193.837 7.91 194.417 8.69V0.8H198.677V23H194.417V20.54C193.897 21.36 193.167 22.02 192.227 22.52C191.287 23.02 190.197 23.27 188.957 23.27C187.557 23.27 186.277 22.91 185.117 22.19C183.957 21.47 183.037 20.46 182.357 19.16C181.697 17.84 181.367 16.33 181.367 14.63ZM194.447 14.69C194.447 13.67 194.247 12.8 193.847 12.08C193.447 11.34 192.907 10.78 192.227 10.4C191.547 10 190.817 9.8 190.037 9.8C189.257 9.8 188.537 9.99 187.877 10.37C187.217 10.75 186.677 11.31 186.257 12.05C185.857 12.77 185.657 13.63 185.657 14.63C185.657 15.63 185.857 16.51 186.257 17.27C186.677 18.01 187.217 18.58 187.877 18.98C188.557 19.38 189.277 19.58 190.037 19.58C190.817 19.58 191.547 19.39 192.227 19.01C192.907 18.61 193.447 18.05 193.847 17.33C194.247 16.59 194.447 15.71 194.447 14.69ZM202.119 18.74V15.44L211.929 1.4H216.819V15.08H219.459V18.74H216.819V23H212.619V18.74H202.119ZM212.889 5.9L206.739 15.08H212.889V5.9ZM224.473 23.21C223.713 23.21 223.083 22.98 222.583 22.52C222.103 22.04 221.863 21.45 221.863 20.75C221.863 20.05 222.103 19.47 222.583 19.01C223.083 18.53 223.713 18.29 224.473 18.29C225.213 18.29 225.823 18.53 226.303 19.01C226.783 19.47 227.023 20.05 227.023 20.75C227.023 21.45 226.783 22.04 226.303 22.52C225.823 22.98 225.213 23.21 224.473 23.21ZM224.473 10.79C223.713 10.79 223.083 10.56 222.583 10.1C222.103 9.62 221.863 9.03 221.863 8.33C221.863 7.63 222.103 7.05 222.583 6.59C223.083 6.11 223.713 5.87 224.473 5.87C225.213 5.87 225.823 6.11 226.303 6.59C226.783 7.05 227.023 7.63 227.023 8.33C227.023 9.03 226.783 9.62 226.303 10.1C225.823 10.56 225.213 10.79 224.473 10.79ZM10.79 59.21C8.83 59.21 7.03 58.75 5.39 57.83C3.75 56.91 2.45 55.64 1.49 54.02C0.53 52.38 0.05 50.53 0.05 48.47C0.05 46.43 0.53 44.6 1.49 42.98C2.45 41.34 3.75 40.06 5.39 39.14C7.03 38.22 8.83 37.76 10.79 37.76C12.77 37.76 14.57 38.22 16.19 39.14C17.83 40.06 19.12 41.34 20.06 42.98C21.02 44.6 21.5 46.43 21.5 48.47C21.5 50.53 21.02 52.38 20.06 54.02C19.12 55.64 17.83 56.91 16.19 57.83C14.55 58.75 12.75 59.21 10.79 59.21ZM10.79 55.46C12.05 55.46 13.16 55.18 14.12 54.62C15.08 54.04 15.83 53.22 16.37 52.16C16.91 51.1 17.18 49.87 17.18 48.47C17.18 47.07 16.91 45.85 16.37 44.81C15.83 43.75 15.08 42.94 14.12 42.38C13.16 41.82 12.05 41.54 10.79 41.54C9.53 41.54 8.41 41.82 7.43 42.38C6.47 42.94 5.72 43.75 5.18 44.81C4.64 45.85 4.37 47.07 4.37 48.47C4.37 49.87 4.64 51.1 5.18 52.16C5.72 53.22 6.47 54.04 7.43 54.62C8.41 55.18 9.53 55.46 10.79 55.46ZM32.2447 45.83H29.3347V59H25.0747V45.83H23.1847V42.38H25.0747V41.54C25.0747 39.5 25.6547 38 26.8147 37.04C27.9747 36.08 29.7247 35.63 32.0647 35.69V39.23C31.0447 39.21 30.3347 39.38 29.9347 39.74C29.5347 40.1 29.3347 40.75 29.3347 41.69V42.38H32.2447V45.83ZM42.5865 45.83H39.6765V59H35.4165V45.83H33.5265V42.38H35.4165V41.54C35.4165 39.5 35.9965 38 37.1565 37.04C38.3165 36.08 40.0665 35.63 42.4065 35.69V39.23C41.3865 39.21 40.6765 39.38 40.2765 39.74C39.8765 40.1 39.6765 40.75 39.6765 41.69V42.38H42.5865V45.83ZM47.4383 40.4C46.6983 40.4 46.0783 40.17 45.5783 39.71C45.0983 39.23 44.8583 38.64 44.8583 37.94C44.8583 37.24 45.0983 36.66 45.5783 36.2C46.0783 35.72 46.6983 35.48 47.4383 35.48C48.1783 35.48 48.7883 35.72 49.2683 36.2C49.7683 36.66 50.0183 37.24 50.0183 37.94C50.0183 38.64 49.7683 39.23 49.2683 39.71C48.7883 40.17 48.1783 40.4 47.4383 40.4ZM49.5083 42.38V59H45.3083V42.38H49.5083ZM52.5779 50.69C52.5779 48.97 52.9279 47.47 53.6279 46.19C54.3279 44.89 55.2979 43.89 56.5379 43.19C57.7779 42.47 59.1979 42.11 60.7979 42.11C62.8579 42.11 64.5579 42.63 65.8979 43.67C67.2579 44.69 68.1679 46.13 68.6279 47.99H64.0979C63.8579 47.27 63.4479 46.71 62.8679 46.31C62.3079 45.89 61.6079 45.68 60.7679 45.68C59.5679 45.68 58.6179 46.12 57.9179 47C57.2179 47.86 56.8679 49.09 56.8679 50.69C56.8679 52.27 57.2179 53.5 57.9179 54.38C58.6179 55.24 59.5679 55.67 60.7679 55.67C62.4679 55.67 63.5779 54.91 64.0979 53.39H68.6279C68.1679 55.19 67.2579 56.62 65.8979 57.68C64.5379 58.74 62.8379 59.27 60.7979 59.27C59.1979 59.27 57.7779 58.92 56.5379 58.22C55.2979 57.5 54.3279 56.5 53.6279 55.22C52.9279 53.92 52.5779 52.41 52.5779 50.69ZM73.8348 40.4C73.0948 40.4 72.4748 40.17 71.9748 39.71C71.4948 39.23 71.2548 38.64 71.2548 37.94C71.2548 37.24 71.4948 36.66 71.9748 36.2C72.4748 35.72 73.0948 35.48 73.8348 35.48C74.5748 35.48 75.1848 35.72 75.6648 36.2C76.1648 36.66 76.4148 37.24 76.4148 37.94C76.4148 38.64 76.1648 39.23 75.6648 39.71C75.1848 40.17 74.5748 40.4 73.8348 40.4ZM75.9048 42.38V59H71.7048V42.38H75.9048ZM78.9744 50.63C78.9744 48.95 79.3044 47.46 79.9644 46.16C80.6444 44.86 81.5544 43.86 82.6944 43.16C83.8544 42.46 85.1444 42.11 86.5644 42.11C87.8044 42.11 88.8844 42.36 89.8044 42.86C90.7444 43.36 91.4944 43.99 92.0544 44.75V42.38H96.2844V59H92.0544V56.57C91.5144 57.35 90.7644 58 89.8044 58.52C88.8644 59.02 87.7744 59.27 86.5344 59.27C85.1344 59.27 83.8544 58.91 82.6944 58.19C81.5544 57.47 80.6444 56.46 79.9644 55.16C79.3044 53.84 78.9744 52.33 78.9744 50.63ZM92.0544 50.69C92.0544 49.67 91.8544 48.8 91.4544 48.08C91.0544 47.34 90.5144 46.78 89.8344 46.4C89.1544 46 88.4244 45.8 87.6444 45.8C86.8644 45.8 86.1444 45.99 85.4844 46.37C84.8244 46.75 84.2844 47.31 83.8644 48.05C83.4644 48.77 83.2644 49.63 83.2644 50.63C83.2644 51.63 83.4644 52.51 83.8644 53.27C84.2844 54.01 84.8244 54.58 85.4844 54.98C86.1644 55.38 86.8844 55.58 87.6444 55.58C88.4244 55.58 89.1544 55.39 89.8344 55.01C90.5144 54.61 91.0544 54.05 91.4544 53.33C91.8544 52.59 92.0544 51.71 92.0544 50.69ZM104.586 36.8V59H100.386V36.8H104.586ZM120.084 55.67H126.984V59H115.884V38.06H120.084V55.67ZM128.574 50.63C128.574 48.95 128.904 47.46 129.564 46.16C130.244 44.86 131.154 43.86 132.294 43.16C133.454 42.46 134.744 42.11 136.164 42.11C137.404 42.11 138.484 42.36 139.404 42.86C140.344 43.36 141.094 43.99 141.654 44.75V42.38H145.884V59H141.654V56.57C141.114 57.35 140.364 58 139.404 58.52C138.464 59.02 137.374 59.27 136.134 59.27C134.734 59.27 133.454 58.91 132.294 58.19C131.154 57.47 130.244 56.46 129.564 55.16C128.904 53.84 128.574 52.33 128.574 50.63ZM141.654 50.69C141.654 49.67 141.454 48.8 141.054 48.08C140.654 47.34 140.114 46.78 139.434 46.4C138.754 46 138.024 45.8 137.244 45.8C136.464 45.8 135.744 45.99 135.084 46.37C134.424 46.75 133.884 47.31 133.464 48.05C133.064 48.77 132.864 49.63 132.864 50.63C132.864 51.63 133.064 52.51 133.464 53.27C133.884 54.01 134.424 54.58 135.084 54.98C135.764 55.38 136.484 55.58 137.244 55.58C138.024 55.58 138.754 55.39 139.434 55.01C140.114 54.61 140.654 54.05 141.054 53.33C141.454 52.59 141.654 51.71 141.654 50.69ZM165.676 42.38V59H161.446V56.9C160.906 57.62 160.196 58.19 159.316 58.61C158.456 59.01 157.516 59.21 156.496 59.21C155.196 59.21 154.046 58.94 153.046 58.4C152.046 57.84 151.256 57.03 150.676 55.97C150.116 54.89 149.836 53.61 149.836 52.13V42.38H154.036V51.53C154.036 52.85 154.366 53.87 155.026 54.59C155.686 55.29 156.586 55.64 157.726 55.64C158.886 55.64 159.796 55.29 160.456 54.59C161.116 53.87 161.446 52.85 161.446 51.53V42.38H165.676ZM179.03 42.14C181.01 42.14 182.61 42.77 183.83 44.03C185.05 45.27 185.66 47.01 185.66 49.25V59H181.46V49.82C181.46 48.5 181.13 47.49 180.47 46.79C179.81 46.07 178.91 45.71 177.77 45.71C176.61 45.71 175.69 46.07 175.01 46.79C174.35 47.49 174.02 48.5 174.02 49.82V59H169.82V42.38H174.02V44.45C174.58 43.73 175.29 43.17 176.15 42.77C177.03 42.35 177.99 42.14 179.03 42.14ZM188.574 50.69C188.574 48.97 188.924 47.47 189.624 46.19C190.324 44.89 191.294 43.89 192.534 43.19C193.774 42.47 195.194 42.11 196.794 42.11C198.854 42.11 200.554 42.63 201.894 43.67C203.254 44.69 204.164 46.13 204.624 47.99H200.094C199.854 47.27 199.444 46.71 198.864 46.31C198.304 45.89 197.604 45.68 196.764 45.68C195.564 45.68 194.614 46.12 193.914 47C193.214 47.86 192.864 49.09 192.864 50.69C192.864 52.27 193.214 53.5 193.914 54.38C194.614 55.24 195.564 55.67 196.764 55.67C198.464 55.67 199.574 54.91 200.094 53.39H204.624C204.164 55.19 203.254 56.62 201.894 57.68C200.534 58.74 198.834 59.27 196.794 59.27C195.194 59.27 193.774 58.92 192.534 58.22C191.294 57.5 190.324 56.5 189.624 55.22C188.924 53.92 188.574 52.41 188.574 50.69ZM217.061 42.14C218.321 42.14 219.441 42.42 220.421 42.98C221.401 43.52 222.161 44.33 222.701 45.41C223.261 46.47 223.541 47.75 223.541 49.25V59H219.341V49.82C219.341 48.5 219.011 47.49 218.351 46.79C217.691 46.07 216.791 45.71 215.651 45.71C214.491 45.71 213.571 46.07 212.891 46.79C212.231 47.49 211.901 48.5 211.901 49.82V59H207.701V36.8H211.901V44.45C212.441 43.73 213.161 43.17 214.061 42.77C214.961 42.35 215.961 42.14 217.061 42.14ZM247.613 38.06V41.45H238.883V46.82H245.573V50.15H238.883V59H234.683V38.06H247.613ZM252.721 40.4C251.981 40.4 251.361 40.17 250.861 39.71C250.381 39.23 250.141 38.64 250.141 37.94C250.141 37.24 250.381 36.66 250.861 36.2C251.361 35.72 251.981 35.48 252.721 35.48C253.461 35.48 254.071 35.72 254.551 36.2C255.051 36.66 255.301 37.24 255.301 37.94C255.301 38.64 255.051 39.23 254.551 39.71C254.071 40.17 253.461 40.4 252.721 40.4ZM254.791 42.38V59H250.591V42.38H254.791ZM263.141 36.8V59H258.941V36.8H263.141ZM287.931 42.14C289.971 42.14 291.611 42.77 292.851 44.03C294.111 45.27 294.741 47.01 294.741 49.25V59H290.541V49.82C290.541 48.52 290.211 47.53 289.551 46.85C288.891 46.15 287.991 45.8 286.851 45.8C285.711 45.8 284.801 46.15 284.121 46.85C283.461 47.53 283.131 48.52 283.131 49.82V59H278.931V49.82C278.931 48.52 278.601 47.53 277.941 46.85C277.281 46.15 276.381 45.8 275.241 45.8C274.081 45.8 273.161 46.15 272.481 46.85C271.821 47.53 271.491 48.52 271.491 49.82V59H267.291V42.38H271.491V44.39C272.031 43.69 272.721 43.14 273.561 42.74C274.421 42.34 275.361 42.14 276.381 42.14C277.681 42.14 278.841 42.42 279.861 42.98C280.881 43.52 281.671 44.3 282.231 45.32C282.771 44.36 283.551 43.59 284.571 43.01C285.611 42.43 286.731 42.14 287.931 42.14Z" fill="white"/>
</svg>
